<?xml version="1.0" standalone="no"?>
<svg xmlns:xlink="http://www.w3.org/1999/xlink" id="wave" style="transform:rotate(0deg); transition: 0.3s" viewBox="0 0 1440 490" version="1.1" xmlns="http://www.w3.org/2000/svg"><defs><linearGradient id="sw-gradient-0" x1="0" x2="0" y1="1" y2="0"><stop stop-color="rgba(250.767, 250.767, 250.767, 1)" offset="0%"/><stop stop-color="rgba(255, 255, 255, 1)" offset="100%"/></linearGradient></defs><path style="transform:translate(0, 0px); opacity:1" fill="url(#sw-gradient-0)" d="M0,392L120,383.8C240,376,480,359,720,351.2C960,343,1200,343,1440,334.8C1680,327,1920,310,2160,285.8C2400,261,2640,229,2880,245C3120,261,3360,327,3600,343C3840,359,4080,327,4320,318.5C4560,310,4800,327,5040,310.3C5280,294,5520,245,5760,212.3C6000,180,6240,163,6480,179.7C6720,196,6960,245,7200,285.8C7440,327,7680,359,7920,367.5C8160,376,8400,359,8640,302.2C8880,245,9120,147,9360,147C9600,147,9840,245,10080,236.8C10320,229,10560,114,10800,81.7C11040,49,11280,98,11520,114.3C11760,131,12000,114,12240,163.3C12480,212,12720,327,12960,367.5C13200,408,13440,376,13680,351.2C13920,327,14160,310,14400,302.2C14640,294,14880,294,15120,310.3C15360,327,15600,359,15840,351.2C16080,343,16320,294,16560,245C16800,196,17040,147,17160,122.5L17280,98L17280,490L17160,490C17040,490,16800,490,16560,490C16320,490,16080,490,15840,490C15600,490,15360,490,15120,490C14880,490,14640,490,14400,490C14160,490,13920,490,13680,490C13440,490,13200,490,12960,490C12720,490,12480,490,12240,490C12000,490,11760,490,11520,490C11280,490,11040,490,10800,490C10560,490,10320,490,10080,490C9840,490,9600,490,9360,490C9120,490,8880,490,8640,490C8400,490,8160,490,7920,490C7680,490,7440,490,7200,490C6960,490,6720,490,6480,490C6240,490,6000,490,5760,490C5520,490,5280,490,5040,490C4800,490,4560,490,4320,490C4080,490,3840,490,3600,490C3360,490,3120,490,2880,490C2640,490,2400,490,2160,490C1920,490,1680,490,1440,490C1200,490,960,490,720,490C480,490,240,490,120,490L0,490Z"/></svg>